<?xml version="1.0" encoding="utf-8"?>
<!-- Generator: Adobe Illustrator 26.0.1, SVG Export Plug-In . SVG Version: 6.00 Build 0)  -->
<svg version="1.1" id="Layer_1" xmlns="http://www.w3.org/2000/svg" xmlns:xlink="http://www.w3.org/1999/xlink" x="0px" y="0px"
	 viewBox="0 0 496.2 496.2" style="enable-background:new 0 0 496.2 496.2;" xml:space="preserve">
<style type="text/css">
	.st0{fill:#86DAE4;}
	.st1{fill:#FFFFFF;}
</style>
<path class="st0" d="M496.2,248.1C496.2,111.1,385.1,0,248.1,0C111.1,0,0,111.1,0,248.1c0,137,111.1,248.1,248.1,248.1
	C385.1,496.2,496.2,385.1,496.2,248.1z"/>
<g>
	<path class="st1" d="M247.7,125.3c-3.4-1.9-7.6-1.7-10.8,0.4l-95.1,61.8h-35.2c-5.8,0-10.6,4.7-10.6,10.6v92.7
		c0,5.8,4.7,10.6,10.6,10.6h35.2l95.1,61.8c1.7,1.1,3.8,1.7,5.8,1.7c1.7,0,3.5-0.4,5-1.3c3.4-1.9,5.5-5.4,5.5-9.3V134.6
		C253.2,130.7,251.1,127.1,247.7,125.3z"/>
	<path class="st1" d="M282.7,319.3c0.9,0,1.8-0.2,2.7-0.5c24.2-9.4,40.5-38.5,40.5-72.4c0-30-13.2-57-33.6-69
		c-3.5-2.1-8.1-0.9-10.2,2.6c-2.1,3.5-0.9,8.1,2.7,10.2c16,9.4,26.3,31.4,26.3,56.2c0,27.4-12.8,51.4-31.1,58.5
		c-3.8,1.5-5.7,5.8-4.2,9.6C276.9,317.5,279.7,319.3,282.7,319.3z"/>
	<path class="st1" d="M302.1,350.2c0.9,0,1.8-0.2,2.7-0.5c34-13.2,57.8-56,57.8-104c0-43.2-18.9-82.2-48.1-99.3
		c-3.5-2.1-8.1-0.9-10.2,2.7c-2.1,3.5-0.9,8.1,2.7,10.2c24.8,14.5,40.8,48.5,40.8,86.5c0,42-19.9,79.1-48.4,90.2
		c-3.8,1.5-5.7,5.8-4.2,9.6C296.3,348.4,299.1,350.2,302.1,350.2z"/>
	<path class="st1" d="M322,379.7c-3,0-5.8-1.8-7-4.8c-1.5-3.9,0.4-8.2,4.3-9.7c38.8-15.1,65.8-64.4,65.8-120
		c0-50.1-21.6-95.2-55.1-114.8c-3.6-2.1-4.8-6.7-2.7-10.3c2.1-3.6,6.7-4.8,10.3-2.7c37.9,22.2,62.5,72.4,62.5,127.7
		c0,61.7-31,116.8-75.4,134C323.8,379.6,322.9,379.7,322,379.7z"/>
</g>
</svg>
